<svg width="180" height="180" viewBox="0 0 180 180" fill="none" xmlns="http://www.w3.org/2000/svg">
<path fill-rule="evenodd" clip-rule="evenodd" d="M60.7703 50.1696C55.0645 50.1696 50.8424 55.1637 51.0314 60.5797C51.2129 65.783 50.9771 72.5221 49.2807 78.0178C47.5781 83.5289 44.7008 87.0213 40 87.4696V92.5305C44.7008 92.9797 47.5781 96.4704 49.2805 101.982C50.9771 107.478 51.2127 114.217 51.0312 119.42C50.8422 124.836 55.0643 129.831 60.7711 129.831H119.237C124.943 129.831 129.164 124.836 128.975 119.42C128.794 114.217 129.03 107.478 130.726 101.982C132.429 96.4704 135.299 92.9784 140 92.5305V87.4696C135.299 87.0204 132.429 83.5297 130.726 78.0178C129.029 72.5229 128.794 65.783 128.975 60.5797C129.164 55.1645 124.943 50.1696 119.237 50.1696H60.7695H60.7703ZM107.797 99.2061C107.797 106.664 102.234 111.187 93.0025 111.187H77.2881C76.8386 111.187 76.4075 111.008 76.0896 110.69C75.7717 110.372 75.5932 109.941 75.5932 109.492V70.5086C75.5932 70.0591 75.7717 69.628 76.0896 69.3101C76.4075 68.9923 76.8386 68.8137 77.2881 68.8137H92.9131C100.611 68.8137 105.662 72.9832 105.662 79.3848C105.662 83.878 102.264 87.9004 97.9344 88.6051V88.8395C103.828 89.486 107.797 93.568 107.797 99.2061ZM91.2891 74.1866H82.3289V86.8428H89.8756C95.7096 86.8428 98.9264 84.4936 98.9264 80.2946C98.9258 76.3594 96.1602 74.1866 91.2891 74.1866ZM82.3289 91.8645V105.812H91.6187C97.693 105.812 100.91 103.375 100.91 98.7942C100.91 94.2137 97.6027 91.8637 91.2281 91.8637H82.3289V91.8645Z" fill="#7952B3"/>
</svg>
