<svg width="49" height="48" viewBox="0 0 49 48" fill="#000" xmlns="http://www.w3.org/2000/svg">
<path fill-rule="evenodd" clip-rule="evenodd" d="M4 6C2.067 6 0.5 7.567 0.5 9.5V37.5C0.5 39.433 2.067 41 4 41H45C46.933 41 48.5 39.433 48.5 37.5V9.5C48.5 7.567 46.933 6 45 6H4ZM3.5 9.5C3.5 9.22386 3.72386 9 4 9H45C45.2761 9 45.5 9.22386 45.5 9.5V11.2031L24.7799 25.2032C24.6107 25.3175 24.3891 25.3175 24.22 25.2032L3.5 11.2032V9.5ZM3.5 14.8238V37.5C3.5 37.7761 3.72386 38 4 38H45C45.2761 38 45.5 37.7761 45.5 37.5V14.8237L26.4594 27.689C25.2756 28.4889 23.7243 28.4889 22.5404 27.689L3.5 14.8238Z" fill="#171923"/>
</svg>
