<svg width="18" height="16" viewBox="0 0 18 16" fill="none" xmlns="http://www.w3.org/2000/svg">
<g clip-path="url(#clip0_1_1950)">
<path fill-rule="evenodd" clip-rule="evenodd" d="M4.62722 2.291C4.6977 2.20045 4.78809 2.12714 4.89147 2.0767C4.99485 2.02626 5.10848 2.00002 5.22364 2H12.8071C12.9223 2.00002 13.0359 2.02626 13.1393 2.0767C13.2427 2.12714 13.3331 2.20045 13.4036 2.291L16.9036 6.791C17.0175 6.93712 17.0731 7.11991 17.0597 7.30428C17.0464 7.48865 16.965 7.66162 16.8312 7.79L9.5394 14.79C9.39876 14.925 9.21089 15.0005 9.01539 15.0005C8.81988 15.0005 8.63202 14.925 8.49138 14.79L1.19956 7.79C1.06579 7.66162 0.984411 7.48865 0.971046 7.30428C0.957681 7.11991 1.01327 6.93712 1.12714 6.791L4.62722 2.291ZM5.59376 3.5L2.73335 7.177L9.01539 13.207L15.2974 7.177L12.437 3.5H5.59376Z" fill="#24292E"/>
</g>
<defs>
<clipPath id="clip0_1_1950">
<rect width="16.0923" height="16" fill="white" transform="translate(0.969238)"/>
</clipPath>
</defs>
</svg>
