<svg width="180" height="180" viewBox="0 0 180 180" fill="none" xmlns="http://www.w3.org/2000/svg">
<path d="M69.6337 86.2186C69.1749 85.6195 68.4974 85.2266 67.7495 85.1259C67.0017 85.0251 66.2444 85.2248 65.6433 85.6811C65.2897 85.9599 65.0045 86.3159 64.8094 86.7217L40.3088 135.737C39.9618 136.431 39.9048 137.235 40.1503 137.972C40.3959 138.709 40.9238 139.318 41.6182 139.665C42.0241 139.871 42.4728 139.977 42.9277 139.975H77.0632C77.6099 139.989 78.1489 139.844 78.614 139.556C79.0792 139.268 79.4504 138.851 79.6821 138.356C87.0495 123.138 82.5836 100.002 69.6337 86.2186Z" fill="url(#paint0_linear_20_181)"/>
<path d="M87.6423 41.6143C81.5345 51.0131 77.975 61.8382 77.3129 73.0277C76.6508 84.2171 78.9088 95.3865 83.8655 105.44L100.323 138.356C100.567 138.842 100.94 139.251 101.403 139.537C101.865 139.823 102.398 139.975 102.942 139.975H137.071C137.456 139.976 137.837 139.901 138.193 139.754C138.549 139.607 138.872 139.392 139.144 139.119C139.416 138.847 139.632 138.524 139.779 138.168C139.926 137.812 140.001 137.431 140 137.046C140 136.592 139.897 136.144 139.697 135.737L92.6251 41.6005C92.4017 41.1288 92.049 40.7302 91.6079 40.4511C91.1669 40.1719 90.6557 40.0238 90.1337 40.0238C89.6118 40.0238 89.1006 40.1719 88.6595 40.4511C88.2185 40.7302 87.8657 41.1288 87.6423 41.6005V41.6143Z" fill="#2684FF"/>
<defs>
<linearGradient id="paint0_linear_20_181" x1="83.1211" y1="93.7101" x2="57.249" y2="138.521" gradientUnits="userSpaceOnUse">
<stop stop-color="#0052CC"/>
<stop offset="0.92" stop-color="#2684FF"/>
</linearGradient>
</defs>
</svg>
