<svg width="180" height="180" viewBox="0 0 180 180" fill="none" xmlns="http://www.w3.org/2000/svg">
<path d="M138.114 85.5445L94.4531 41.8859C91.9402 39.3715 87.8621 39.3715 85.3461 41.8859L76.2797 50.9523L87.7809 62.4535C90.4535 61.5504 93.5184 62.1562 95.6488 64.2867C97.7894 66.4309 98.391 69.5219 97.466 72.2031L108.55 83.2875C111.232 82.3637 114.326 82.9613 116.468 85.1066C119.461 88.0988 119.461 92.9484 116.468 95.9426C113.473 98.9371 108.624 98.9371 105.628 95.9426C103.377 93.6887 102.82 90.382 103.96 87.6082L93.6234 77.2715L93.6223 104.473C94.3716 104.844 95.056 105.333 95.6488 105.923C98.6422 108.915 98.6422 113.765 95.6488 116.761C92.6547 119.754 87.8027 119.754 84.8129 116.761C81.8195 113.765 81.8195 108.915 84.8129 105.923C85.5302 105.205 86.3827 104.637 87.3211 104.251V76.7953C86.3814 76.4117 85.5284 75.843 84.8129 75.123C82.5449 72.8582 81.9996 69.5305 83.1617 66.7457L71.8242 55.407L41.8867 85.3426C39.3711 87.8594 39.3711 91.9379 41.8867 94.4527L85.5484 138.112C88.0621 140.627 92.1395 140.627 94.6562 138.112L138.114 94.6555C140.629 92.1398 140.629 88.059 138.114 85.5445" fill="#DE4C36"/>
</svg>
