<svg width="42" height="42" viewBox="0 0 42 42" fill="none" xmlns="http://www.w3.org/2000/svg">
<g clip-path="url(#clip0_55_317)">
<path fill-rule="evenodd" clip-rule="evenodd" d="M0 16.8C0 10.9194 0 7.97917 1.14443 5.7331C2.1511 3.7574 3.7574 2.1511 5.7331 1.14443C7.97917 0 10.9194 0 16.8 0H25.2C31.0806 0 34.0208 0 36.2669 1.14443C38.2426 2.1511 39.8489 3.7574 40.8556 5.7331C42 7.97917 42 10.9194 42 16.8V25.2C42 31.0806 42 34.0208 40.8556 36.2669C39.8489 38.2426 38.2426 39.8489 36.2669 40.8556C34.0208 42 31.0806 42 25.2 42H16.8C10.9194 42 7.97917 42 5.7331 40.8556C3.7574 39.8489 2.1511 38.2426 1.14443 36.2669C0 34.0208 0 31.0806 0 25.2V16.8ZM5.25 21C5.25 12.3021 12.2981 5.25 21 5.25C29.6979 5.25 36.75 12.3021 36.75 21C36.75 27.9497 32.2416 33.8559 25.9403 35.9218C25.1331 36.0793 24.8574 35.5871 24.8574 35.1737C24.8574 35.0047 24.8596 34.707 24.8625 34.3082C24.8683 33.4988 24.8771 32.2729 24.8771 30.8608C24.8771 29.3856 24.3652 28.4196 23.814 27.9471C27.3184 27.5599 30.9999 26.2277 30.9999 20.1771C30.9999 18.4577 30.3896 17.0533 29.3856 15.9508C29.5431 15.5531 30.0746 13.9519 29.2281 11.7823C29.2281 11.7823 27.909 11.3597 24.9165 13.3967C23.6565 13.0463 22.3178 12.873 20.979 12.8651C19.6403 12.873 18.3015 13.0463 17.0415 13.3967C14.0293 11.3597 12.7102 11.7823 12.7102 11.7823C11.8637 13.9519 12.3953 15.5531 12.5724 15.9508C11.5618 17.0533 10.9515 18.4577 10.9515 20.1771C10.9515 26.2119 14.6278 27.5664 18.1256 27.9602C17.6754 28.3539 17.2699 29.0482 17.1281 30.0667C16.2277 30.4697 13.9453 31.1653 12.5409 28.7569C12.5409 28.7569 11.7101 27.2449 10.1286 27.1346C10.1286 27.1346 8.59163 27.1149 10.0183 28.0914C10.0183 28.0914 11.0539 28.5771 11.7705 30.3949C11.7705 30.3949 12.6945 33.4582 17.0756 32.508C17.0793 33.2368 17.0849 33.8665 17.0893 34.3464C17.0927 34.7308 17.0953 35.0191 17.0953 35.1855C17.0953 35.6042 16.8066 36.0911 16.0191 35.9428C9.76237 33.8625 5.25 27.9602 5.25 21Z" fill="#232323"/>
</g>
<defs>
<clipPath id="clip0_55_317">
<rect width="42" height="42" fill="white"/>
</clipPath>
</defs>
</svg>
