<svg width="48" height="48" viewBox="0 0 48 48" fill="none" xmlns="http://www.w3.org/2000/svg">
<path fill-rule="evenodd" clip-rule="evenodd" d="M22.0591 5.17976C23.1787 4.22979 24.8213 4.22979 25.9409 5.17976L40.9409 17.907C41.6127 18.477 42 19.3135 42 20.1946V39.0001C42 40.6569 40.6569 42.0001 39 42.0001H27.5C26.6716 42.0001 26 41.3285 26 40.5001V28.0001H22V40.5001C22 41.3285 21.3284 42.0001 20.5 42.0001H9C7.34315 42.0001 6 40.6569 6 39.0001V20.1946C6 19.3135 6.38727 18.477 7.05907 17.907L22.0591 5.17976ZM24 7.46729L9 20.1946L9 39.0001H19V26.5001C19 25.6717 19.6716 25.0001 20.5 25.0001H27.5C28.3284 25.0001 29 25.6717 29 26.5001V39.0001H39V20.1946L24 7.46729Z" fill="#171923"/>
</svg>
