<svg width="42" height="42" viewBox="0 0 42 42" fill="none" xmlns="http://www.w3.org/2000/svg">
<g clip-path="url(#clip0_55_318)">
<path fill-rule="evenodd" clip-rule="evenodd" d="M1.14443 5.7331C0 7.97917 0 10.9194 0 16.8V25.2C0 31.0806 0 34.0208 1.14443 36.2669C2.1511 38.2426 3.7574 39.8489 5.7331 40.8556C7.97917 42 10.9194 42 16.8 42H25.2C31.0806 42 34.0208 42 36.2669 40.8556C38.2426 39.8489 39.8489 38.2426 40.8556 36.2669C42 34.0208 42 31.0806 42 25.2V16.8C42 10.9194 42 7.97917 40.8556 5.7331C39.8489 3.7574 38.2426 2.1511 36.2669 1.14443C34.0208 0 31.0806 0 25.2 0H16.8C10.9194 0 7.97917 0 5.7331 1.14443C3.7574 2.1511 2.1511 3.7574 1.14443 5.7331ZM7.4625 35H13.2675V16.3058H7.4625V35ZM7 10.3619C7 12.2182 8.50562 13.7558 10.3619 13.7558C12.2175 13.7558 13.7238 12.2182 13.7238 10.3619C13.7238 9.47031 13.3696 8.61518 12.7391 7.98469C12.1086 7.3542 11.2535 7 10.3619 7C9.47025 7 8.61514 7.3542 7.98467 7.98469C7.3542 8.61518 7 9.47031 7 10.3619ZM29.2012 35H35V24.731C35 19.7059 33.92 15.8371 28.045 15.8371C25.2206 15.8371 23.3275 17.3871 22.5525 18.8559H22.4713V16.3058H16.9038V35H22.7025V25.7435C22.7025 23.306 23.165 20.9497 26.1831 20.9497C29.1575 20.9497 29.2012 23.731 29.2012 25.8998V35Z" fill="#0A66C2"/>
</g>
<defs>
<clipPath id="clip0_55_318">
<rect width="42" height="42" fill="white"/>
</clipPath>
</defs>
</svg>
