<svg width="20" height="23" viewBox="0 0 20 23" fill="none" xmlns="http://www.w3.org/2000/svg">
<path fill-rule="evenodd" clip-rule="evenodd" d="M10.8759 0.639068C10.3345 0.326529 9.66747 0.326528 9.12607 0.639068L0.876065 5.40157C0.334563 5.71416 0.000976562 6.29191 0.000976562 6.91716V16.4419C0.000976562 17.0672 0.334561 17.6449 0.876064 17.9575L9.12607 22.72C9.66747 23.0326 10.3345 23.0326 10.8759 22.72L19.1259 17.9575C19.6674 17.6449 20.001 17.0672 20.001 16.4419V6.91716C20.001 6.29191 19.6674 5.71416 19.1259 5.40157L10.8759 0.639068ZM9.87599 1.93815C9.95333 1.8935 10.0486 1.8935 10.126 1.93815L17.7511 6.33994L10.001 10.8139L2.25086 6.33993L9.87599 1.93815ZM1.50098 7.63903V16.4419C1.50098 16.5312 1.54863 16.6138 1.62599 16.6584L9.251 21.0602V12.1129L1.50098 7.63903ZM10.751 21.0601L18.376 16.6584C18.4533 16.6138 18.501 16.5312 18.501 16.4419V7.63906L10.751 12.1129V21.0601Z" fill="#24292E"/>
</svg>
