<svg width="49" height="48" viewBox="0 0 49 48" fill="none" xmlns="http://www.w3.org/2000/svg">
<path fill-rule="evenodd" clip-rule="evenodd" d="M20.5 44C18.2909 44 16.5 42.2091 16.5 40L16.5 8C16.5 5.79086 18.2909 4 20.5 4L42.5 4C44.7091 4 46.5 5.79086 46.5 8V40C46.5 42.2091 44.7091 44 42.5 44H20.5ZM19.5 40C19.5 40.5523 19.9477 41 20.5 41H42.5C43.0523 41 43.5 40.5523 43.5 40V8C43.5 7.44772 43.0523 7 42.5 7L20.5 7C19.9477 7 19.5 7.44772 19.5 8L19.5 40Z" fill="#171923"/>
<path fill-rule="evenodd" clip-rule="evenodd" d="M12.8416 8.32918C13.2121 9.07015 12.9118 9.97116 12.1708 10.3416C11.7139 10.5701 11.5801 10.6951 11.54 10.7446C11.5308 10.7559 11.5281 10.7608 11.5235 10.7754C11.5168 10.7964 11.5 10.8617 11.5 11V37C11.5 37.1384 11.5168 37.2036 11.5235 37.2247C11.5281 37.2393 11.5308 37.2441 11.54 37.2554C11.5801 37.3049 11.7138 37.4299 12.1708 37.6584C12.9118 38.0289 13.2121 38.9299 12.8416 39.6708C12.4712 40.4118 11.5701 40.7121 10.8292 40.3417C10.2862 40.0702 9.66992 39.7122 9.21002 39.1452C8.70077 38.5173 8.5 37.787 8.5 37V11C8.5 10.2131 8.70077 9.48273 9.21 8.85486C9.66989 8.28782 10.2861 7.92988 10.8292 7.65836C11.5701 7.28788 12.4712 7.58821 12.8416 8.32918Z" fill="#171923"/>
<path fill-rule="evenodd" clip-rule="evenodd" d="M4.79841 11.2489C5.21322 11.966 4.96818 12.8836 4.25109 13.2984C3.95171 13.4716 3.73801 13.6396 3.61126 13.7882C3.49998 13.9188 3.49999 13.9782 3.5 13.9996V34C3.49999 34.0214 3.49998 34.0812 3.61126 34.2118C3.73801 34.3604 3.95171 34.5284 4.25109 34.7016C4.96818 35.1164 5.21322 36.034 4.79841 36.7511C4.38359 37.4682 3.466 37.7132 2.74891 37.2984C1.95918 36.8416 0.5 35.8138 0.5 34V14C0.5 12.1862 1.95918 11.1584 2.74891 10.7016C3.466 10.2868 4.38359 10.5318 4.79841 11.2489Z" fill="#171923"/>
</svg>
