<svg width="180" height="180" viewBox="0 0 180 180" fill="none" xmlns="http://www.w3.org/2000/svg">
<path d="M109.29 108.834C112.98 108.452 115.779 105.271 115.652 101.453C115.525 97.6356 112.343 94.5813 108.526 94.5813H108.272C104.326 94.7086 101.272 98.0172 101.4 101.962C101.527 103.871 102.29 105.525 103.436 106.671C99.109 115.197 92.4918 121.433 82.5661 126.65C75.8215 130.214 68.8227 131.486 61.8238 130.596C56.0973 129.832 51.6434 127.287 48.8434 123.087C44.7715 116.852 44.3898 110.107 47.8258 103.362C50.2438 98.5262 54.0609 94.9629 56.4789 93.1813C55.9699 91.527 55.2063 88.7274 54.8246 86.6914C36.3726 100.054 38.2816 118.124 43.8809 126.65C48.0801 133.014 56.6063 136.959 66.0231 136.959C68.568 136.959 71.1129 136.704 73.6582 136.068C89.9469 132.886 102.291 123.214 109.29 108.834ZM131.686 93.0543C122.015 81.7281 107.763 75.4926 91.4739 75.4926H89.4379C88.2926 73.202 85.8747 71.6746 83.2024 71.6746H82.9477C79.0032 71.802 75.9493 75.1106 76.0762 79.0559C76.2035 82.8735 79.3848 85.9277 83.2024 85.9277H83.4567C86.2563 85.8004 88.6743 84.0188 89.6922 81.6008H91.9829C101.654 81.6008 110.816 84.4004 119.088 89.8727C125.451 94.0723 130.032 99.5445 132.577 106.162C134.74 111.507 134.613 116.724 132.322 121.179C128.759 127.923 122.779 131.614 114.889 131.614C109.799 131.614 104.963 130.086 102.418 128.941C101.018 130.214 98.4727 132.25 96.6911 133.523C102.163 136.068 107.763 137.468 113.107 137.468C125.324 137.468 134.359 130.723 137.795 123.978C141.485 116.597 141.23 103.871 131.686 93.0543ZM67.041 110.997C67.1684 114.815 70.3496 117.869 74.1672 117.869H74.4219C78.3668 117.742 81.4207 114.433 81.2934 110.488C81.1664 106.67 77.9848 103.616 74.1672 103.616H73.9129C73.6582 103.616 73.2762 103.616 73.0223 103.743C67.8047 95.0899 65.6414 85.6731 66.4051 75.4922C66.9137 67.8567 69.459 61.2391 73.9129 55.7668C77.6032 51.0582 84.7293 48.7676 89.5653 48.6406C103.054 48.386 108.78 65.184 109.162 71.9289C110.816 72.3106 113.616 73.2016 115.525 73.8379C113.998 53.2223 101.272 42.5324 89.0563 42.5324C77.6032 42.5324 67.041 50.8043 62.8414 63.0211C56.9879 79.3102 60.8055 94.9629 67.9317 107.307C67.2957 108.198 66.9137 109.598 67.041 110.998V110.997Z" fill="#764ABC"/>
</svg>
