<svg width="180" height="180" viewBox="0 0 180 180" fill="none" xmlns="http://www.w3.org/2000/svg">
<path d="M126.108 95.6141C122.619 95.6324 119.587 96.4726 117.048 97.7146C116.117 95.8698 115.185 94.226 115.021 93.0204C114.838 91.614 114.619 90.7555 114.838 89.0751C115.057 87.3947 116.044 85.0019 116.025 84.8193C116.007 84.6366 115.806 83.7782 113.797 83.7599C111.788 83.7416 110.053 84.1435 109.852 84.6732C109.651 85.2029 109.267 86.4084 109.011 87.6504C108.664 89.477 104.993 95.9977 102.893 99.4133C102.217 98.0799 101.632 96.911 101.504 95.9794C101.322 94.573 101.103 93.7145 101.322 92.0341C101.541 90.3537 102.527 87.9609 102.509 87.7783C102.491 87.5956 102.29 86.7371 100.281 86.7189C98.2714 86.7006 96.5362 87.1025 96.3352 87.6321C96.1343 88.1618 95.9151 89.4039 95.495 90.6094C95.0749 91.8149 90.1981 102.701 88.9195 105.514C88.2619 106.957 87.6957 108.108 87.2939 108.893C87.2939 108.893 87.2756 108.948 87.2208 109.039C86.8738 109.715 86.6729 110.08 86.6729 110.08C86.6729 110.08 86.6729 110.08 86.6729 110.099C86.3989 110.592 86.1066 111.048 85.9605 111.048C85.8509 111.048 85.65 109.733 85.997 107.943C86.7276 104.162 88.4629 98.2809 88.4446 98.08C88.4446 97.9704 88.7734 96.9475 87.3121 96.4178C85.8874 95.8881 85.376 96.7648 85.2482 96.7648C85.1203 96.7648 85.029 97.0754 85.029 97.0754C85.029 97.0754 86.6181 90.4633 81.9969 90.4633C79.111 90.4633 75.1291 93.6232 73.1565 96.4726C71.9144 97.1484 69.2659 98.5914 66.4348 100.144C65.3571 100.747 64.243 101.349 63.2018 101.916C63.1288 101.843 63.0557 101.751 62.9826 101.678C57.3934 95.7054 47.0552 91.4861 47.4936 83.4676C47.658 80.5452 48.6626 72.8737 67.3481 63.5584C82.7275 55.9782 94.9653 58.0788 97.0841 62.7364C100.116 69.385 90.5269 81.7324 74.636 83.5224C68.5719 84.1983 65.3937 81.8603 64.59 80.9835C63.7498 80.0703 63.6219 80.0155 63.3114 80.1981C62.8 80.4721 63.1288 81.2941 63.3114 81.769C63.7863 83.011 65.7407 85.2029 69.0468 86.2805C71.9692 87.2303 79.0745 87.76 87.6774 84.4357C97.3033 80.7096 104.829 70.3531 102.619 61.677C100.408 52.8731 85.7961 49.9689 71.9692 54.8823C63.7498 57.8048 54.8363 62.4076 48.4251 68.3987C40.8085 75.5222 39.603 81.7142 40.0961 84.3078C41.8679 93.5136 54.5623 99.5047 59.6401 103.943C59.3844 104.089 59.1469 104.217 58.946 104.327C56.4071 105.587 46.7265 110.647 44.3154 115.998C41.5756 122.062 44.7538 126.41 46.8543 126.994C53.3751 128.802 60.0784 125.551 63.6767 120.181C67.275 114.811 66.8366 107.834 65.1745 104.637C65.1562 104.601 65.138 104.564 65.1014 104.528C65.759 104.144 66.4348 103.742 67.0924 103.359C68.3892 102.591 69.6678 101.879 70.7637 101.295C70.1427 102.993 69.686 105.021 69.4669 107.943C69.1929 111.377 70.5993 115.834 72.4441 117.587C73.2661 118.355 74.2341 118.373 74.8551 118.373C77.0105 118.373 77.9785 116.583 79.0562 114.464C80.3713 111.87 81.5585 108.857 81.5585 108.857C81.5585 108.857 80.079 117.003 84.0974 117.003C85.5587 117.003 87.0382 115.103 87.6957 114.135C87.6957 114.153 87.6957 114.153 87.6957 114.153C87.6957 114.153 87.7322 114.099 87.8053 113.971C87.9514 113.733 88.0428 113.587 88.0428 113.587C88.0428 113.587 88.0428 113.569 88.0428 113.551C88.6273 112.528 89.9424 110.208 91.8968 106.354C94.4174 101.386 96.8467 95.1758 96.8467 95.1758C96.8467 95.1758 97.0659 96.6918 97.8147 99.2124C98.2531 100.692 99.1664 102.318 99.897 103.888C99.3125 104.71 98.9472 105.167 98.9472 105.167C98.9472 105.167 98.9472 105.167 98.9655 105.185C98.4906 105.806 97.9791 106.482 97.4129 107.14C95.422 109.514 93.0475 112.236 92.7187 113.021C92.3351 113.953 92.4265 114.628 93.1571 115.176C93.6868 115.578 94.6366 115.633 95.6046 115.578C97.3946 115.45 98.6549 115.012 99.276 114.738C100.244 114.391 101.376 113.861 102.436 113.076C104.39 111.633 105.578 109.569 105.468 106.847C105.413 105.35 104.92 103.852 104.317 102.445C104.5 102.19 104.664 101.934 104.847 101.678C107.934 97.1667 110.327 92.2168 110.327 92.2168C110.327 92.2168 110.546 93.7328 111.295 96.2534C111.66 97.532 112.409 98.9202 113.066 100.272C110.162 102.628 108.372 105.368 107.733 107.158C106.582 110.482 107.477 111.98 109.176 112.327C109.943 112.491 111.039 112.126 111.843 111.779C112.865 111.45 114.071 110.884 115.222 110.044C117.176 108.601 119.057 106.592 118.948 103.87C118.893 102.628 118.564 101.404 118.108 100.217C120.573 99.1941 123.752 98.6279 127.807 99.1028C136.501 100.126 138.218 105.55 137.889 107.834C137.56 110.117 135.734 111.359 135.131 111.742C134.528 112.126 134.327 112.254 134.382 112.528C134.455 112.93 134.747 112.911 135.259 112.838C135.971 112.711 139.825 110.994 139.99 106.793C140.264 101.423 135.149 95.5593 126.108 95.6141ZM59.0373 118.227C56.1514 121.368 52.133 122.556 50.3978 121.551C48.5347 120.473 49.2653 115.834 52.8088 112.51C54.9641 110.482 57.7405 108.601 59.5853 107.45C60.0054 107.194 60.6264 106.829 61.3753 106.372C61.5032 106.299 61.5762 106.263 61.5762 106.263C61.7223 106.172 61.8685 106.08 62.0146 105.989C63.3114 110.738 62.0694 114.921 59.0373 118.227ZM80.0425 103.943C79.0379 106.391 76.9374 112.656 75.6588 112.309C74.5629 112.016 73.8871 107.267 75.4396 102.573C76.2251 100.217 77.8872 97.4041 78.8553 96.3082C80.4261 94.5547 82.1613 93.9702 82.5814 94.6826C83.1111 95.6141 80.6635 102.409 80.0425 103.943ZM97.3764 112.236C96.9563 112.455 96.5544 112.601 96.3718 112.491C96.2439 112.418 96.5544 112.126 96.5544 112.126C96.5544 112.126 98.728 109.788 99.5865 108.729C100.08 108.108 100.664 107.377 101.285 106.555C101.285 106.628 101.285 106.719 101.285 106.793C101.285 109.587 98.5819 111.468 97.3764 112.236ZM110.747 109.185C110.436 108.966 110.491 108.236 111.532 105.952C111.934 105.057 112.884 103.56 114.509 102.117C114.692 102.701 114.82 103.267 114.802 103.797C114.783 107.322 112.263 108.637 110.747 109.185Z" fill="#CD6799"/>
</svg>
