<svg width="43" height="48" viewBox="0 0 43 48" fill="none" xmlns="http://www.w3.org/2000/svg">
<path fill-rule="evenodd" clip-rule="evenodd" d="M21.7 2.5C17.3059 2.5 13.2667 3.30379 10.2772 4.65754C8.78611 5.33275 7.49052 6.17427 6.54603 7.18545C5.59874 8.19963 4.91666 9.48815 4.91666 11L4.91673 11.0273L4.91666 36.9734L4.9624 37H4.91666C4.91666 38.5118 5.59874 39.8004 6.54603 40.8145C7.49052 41.8257 8.78612 42.6673 10.2772 43.3425C13.2667 44.6962 17.3059 45.5 21.7 45.5C26.0941 45.5 30.1332 44.6962 33.1228 43.3425C34.6139 42.6673 35.9095 41.8257 36.854 40.8145C37.8012 39.8004 38.4833 38.5118 38.4833 37H38.4376L38.4833 36.9734V11C38.4833 9.48815 37.8012 8.19963 36.854 7.18545C35.9095 6.17427 34.6139 5.33275 33.1228 4.65754C30.1332 3.30379 26.0941 2.5 21.7 2.5ZM7.56666 11C7.56666 10.5789 7.74969 10.0259 8.36687 9.36512C8.98684 8.70136 9.95507 8.03451 11.2614 7.44297C13.8667 6.26322 17.5567 5.5 21.7 5.5C25.8433 5.5 29.5333 6.26322 32.1386 7.44297C33.4449 8.03451 34.4131 8.70136 35.0331 9.36512C35.6503 10.0259 35.8333 10.5789 35.8333 11C35.8333 11.4211 35.6503 11.9741 35.0331 12.6349C34.4131 13.2986 33.4449 13.9655 32.1386 14.557C29.5333 15.7368 25.8433 16.5 21.7 16.5C17.5567 16.5 13.8667 15.7368 11.2614 14.557C9.95507 13.9655 8.98684 13.2986 8.36687 12.6349C7.74969 11.9741 7.56666 11.4211 7.56666 11ZM35.8333 24V15.742C35.0515 16.3524 34.1319 16.8855 33.1228 17.3425C30.1332 18.6962 26.0941 19.5 21.7 19.5C17.3059 19.5 13.2667 18.6962 10.2772 17.3425C9.26807 16.8855 8.34847 16.3524 7.56666 15.742V24C7.56666 24.4211 7.74969 24.9741 8.36687 25.6349C8.98684 26.2986 9.95507 26.9655 11.2614 27.557C13.8667 28.7368 17.5567 29.5 21.7 29.5C25.8433 29.5 29.5333 28.7368 32.1386 27.557C33.4449 26.9655 34.4131 26.2986 35.0331 25.6349C35.6503 24.9741 35.8333 24.4211 35.8333 24ZM7.56666 28.742C8.34847 29.3524 9.26807 29.8855 10.2772 30.3425C13.2667 31.6962 17.3059 32.5 21.7 32.5C26.0941 32.5 30.1332 31.6962 33.1228 30.3425C34.1319 29.8855 35.0515 29.3524 35.8333 28.742V36.9734L35.8562 37H35.8333C35.8333 37.4212 35.6503 37.9741 35.0331 38.6349C34.4131 39.2986 33.4449 39.9655 32.1386 40.557C29.5333 41.7368 25.8433 42.5 21.7 42.5C17.5567 42.5 13.8667 41.7368 11.2614 40.557C9.95507 39.9655 8.98684 39.2986 8.36687 38.6349C7.74969 37.9741 7.56666 37.4212 7.56666 37H7.54378L7.56666 36.9734V28.742Z" fill="#171923"/>
</svg>
