<svg width="42" height="42" viewBox="0 0 42 42" fill="none" xmlns="http://www.w3.org/2000/svg">
<g clip-path="url(#clip0_55_315)">
<path fill-rule="evenodd" clip-rule="evenodd" d="M1.14443 5.7331C0 7.97917 0 10.9194 0 16.8V25.2C0 31.0806 0 34.0208 1.14443 36.2669C2.1511 38.2426 3.7574 39.8489 5.7331 40.8556C7.97917 42 10.9194 42 16.8 42H25.2C31.0806 42 34.0208 42 36.2669 40.8556C38.2426 39.8489 39.8489 38.2426 40.8556 36.2669C42 34.0208 42 31.0806 42 25.2V16.8C42 10.9194 42 7.97917 40.8556 5.7331C39.8489 3.7574 38.2426 2.1511 36.2669 1.14443C34.0208 0 31.0806 0 25.2 0H16.8C10.9194 0 7.97917 0 5.7331 1.14443C3.7574 2.1511 2.1511 3.7574 1.14443 5.7331ZM23.0857 13.1377C20.578 14.1808 15.566 16.3397 8.04985 19.6143C6.82934 20.0997 6.18999 20.5745 6.13178 21.0388C6.03342 21.8234 7.01601 22.1324 8.35405 22.5531C8.53606 22.6104 8.72464 22.6697 8.91797 22.7325C10.2344 23.1604 12.0052 23.661 12.9258 23.6809C13.7608 23.699 14.6928 23.3547 15.7218 22.6481C22.7444 17.9077 26.3695 15.5116 26.5971 15.46C26.7577 15.4235 26.9802 15.3777 27.1309 15.5117C27.2817 15.6457 27.2669 15.8995 27.2509 15.9676C27.1535 16.3825 23.2965 19.9684 21.3005 21.824C20.6782 22.4025 20.2369 22.8129 20.1466 22.9066C19.9445 23.1165 19.7385 23.3151 19.5405 23.506C18.3175 24.6849 17.4004 25.5691 19.5913 27.0128C20.6442 27.7066 21.4867 28.2804 22.3272 28.8528C23.2451 29.4779 24.1606 30.1013 25.3451 30.8778C25.6469 31.0756 25.9352 31.2811 26.2159 31.4813C27.2841 32.2428 28.2438 32.927 29.4295 32.8179C30.1184 32.7545 30.8301 32.1067 31.1915 30.1746C32.0456 25.6084 33.7245 15.715 34.1126 11.6381C34.1465 11.281 34.1038 10.8238 34.0694 10.6232C34.0351 10.4225 33.9633 10.1366 33.7025 9.92494C33.3936 9.67428 32.9167 9.62143 32.7034 9.62518C31.7337 9.64227 30.2459 10.1596 23.0857 13.1377Z" fill="url(#paint0_linear_55_315)"/>
</g>
<defs>
<linearGradient id="paint0_linear_55_315" x1="21" y1="0" x2="21" y2="41.6885" gradientUnits="userSpaceOnUse">
<stop stop-color="#0A66C2"/>
<stop offset="1" stop-color="#0A66C2"/>
</linearGradient>
<clipPath id="clip0_55_315">
<rect width="42" height="42" fill="white"/>
</clipPath>
</defs>
</svg>
