<svg width="42" height="42" viewBox="0 0 42 42" fill="none" xmlns="http://www.w3.org/2000/svg">
<g clip-path="url(#clip0_55_316)">
<path fill-rule="evenodd" clip-rule="evenodd" d="M1.14443 5.7331C0 7.97917 0 10.9194 0 16.8V25.2C0 31.0806 0 34.0208 1.14443 36.2669C2.1511 38.2426 3.7574 39.8489 5.7331 40.8556C7.97917 42 10.9194 42 16.8 42H25.2C31.0806 42 34.0208 42 36.2669 40.8556C38.2426 39.8489 39.8489 38.2426 40.8556 36.2669C42 34.0208 42 31.0806 42 25.2V16.8C42 10.9194 42 7.97917 40.8556 5.7331C39.8489 3.7574 38.2426 2.1511 36.2669 1.14443C34.0208 0 31.0806 0 25.2 0H16.8C10.9194 0 7.97917 0 5.7331 1.14443C3.7574 2.1511 2.1511 3.7574 1.14443 5.7331ZM33.3009 15.8949C33.3009 24.3616 26.8553 34.125 15.0708 34.125V34.12C11.5893 34.1246 8.18008 33.1272 5.25 31.247C6.92752 31.4493 8.62848 31.3188 10.2555 30.8632C11.8826 30.4075 13.4039 29.6354 14.7323 28.5913C13.3953 28.566 12.0996 28.1235 11.0263 27.3257C9.95309 26.528 9.15596 25.4148 8.74637 24.1418C9.70644 24.3268 10.6961 24.2892 11.6394 24.0319C10.1894 23.7389 8.88541 22.9535 7.94852 21.8087C7.01163 20.664 6.49956 19.2304 6.49915 17.7511V17.6699C7.39001 18.1669 8.38749 18.442 9.40718 18.4719C8.05062 17.566 7.09032 16.1772 6.72179 14.5882C6.35325 12.9992 6.60419 11.3294 7.42352 9.91895C9.03228 11.8981 11.0392 13.5168 13.3141 14.6701C15.589 15.8234 18.081 16.4854 20.6283 16.6132C20.3095 15.2396 20.4522 13.7992 21.0345 12.515C21.6168 11.2307 22.6061 10.1742 23.8493 9.50883C25.0925 8.84348 26.5204 8.60642 27.9119 8.83433C29.3035 9.06225 30.5811 9.74243 31.5471 10.7696C32.982 10.4868 34.3579 9.96081 35.6156 9.21443C35.1374 10.6982 34.1364 11.9576 32.7988 12.7583C34.069 12.6084 35.3095 12.2686 36.4788 11.7502C35.6186 13.0367 34.5361 14.1597 33.2822 15.0667C33.3009 15.3415 33.3009 15.6176 33.3009 15.8949Z" fill="#0A66C2"/>
</g>
<defs>
<clipPath id="clip0_55_316">
<rect width="42" height="42" fill="white"/>
</clipPath>
</defs>
</svg>
