<svg width="42" height="42" viewBox="0 0 42 42" fill="none" xmlns="http://www.w3.org/2000/svg">
<path fill-rule="evenodd" clip-rule="evenodd" d="M4.40708 20.8206C5.49013 19.1912 7.6667 16.2265 10.6175 13.6888C13.5863 11.1355 17.1345 9.1875 21.0001 9.1875C24.8658 9.1875 28.4142 11.1355 31.3828 13.6888C34.3335 16.2265 36.5102 19.1912 37.5933 20.8206C37.6689 20.9344 37.6689 21.0656 37.5933 21.1794C36.5102 22.8088 34.3335 25.7735 31.3828 28.3112C28.4142 30.8645 24.8658 32.8125 21.0001 32.8125C17.1345 32.8125 13.5863 30.8645 10.6175 28.3112C7.6667 25.7735 5.49013 22.8088 4.40708 21.1794C4.33142 21.0656 4.33142 20.9344 4.40708 20.8206ZM21.0001 5.25C15.7991 5.25 11.3642 7.85313 8.05 10.7035C4.71772 13.5693 2.31131 16.8606 1.12791 18.6409C0.174483 20.0752 0.174486 21.9248 1.12791 23.3591C2.31132 25.1394 4.71772 28.4306 8.05 31.2966C11.3642 34.1468 15.7991 36.75 21.0001 36.75C26.2012 36.75 30.636 34.1468 33.9503 31.2966C37.2825 28.4306 39.6891 25.1394 40.8724 23.3591C41.8258 21.9248 41.8258 20.0752 40.8724 18.6409C39.6891 16.8606 37.2825 13.5693 33.9503 10.7035C30.636 7.85313 26.2012 5.25 21.0001 5.25ZM21.0001 26.25C23.8996 26.25 26.2501 23.8995 26.2501 21C26.2501 18.1005 23.8996 15.75 21.0001 15.75C18.1006 15.75 15.7501 18.1005 15.7501 21C15.7501 23.8995 18.1006 26.25 21.0001 26.25Z" fill="#171923"/>
</svg>
