<svg width="180" height="180" viewBox="0 0 180 180" fill="none" xmlns="http://www.w3.org/2000/svg">
<path d="M90 40L45.8083 65V115L90 140L134.192 115V65L90 40Z" fill="white"/>
<path d="M53.7001 113.275L88.5417 132.983V117.633L66.8334 105.692L53.7001 113.275ZM51.3167 111.117V69.8999L64.0667 77.2583V103.75L51.3167 111.117ZM126.442 113.275L91.6001 132.983V117.633L113.308 105.692L126.442 113.275ZM128.825 111.117V69.8999L116.075 77.2583V103.75L128.825 111.117ZM127.333 67.2333L91.6001 47.0166V61.8583L114.492 74.4499L114.667 74.5499L127.333 67.2333ZM52.8084 67.2333L88.5417 47.0166V61.8583L65.6501 74.4499L65.4751 74.5499L52.8084 67.2333Z" fill="#8ED6FB"/>
<path d="M91.5999 114.142L113.017 102.367V79.0333L91.5999 91.4V114.142ZM88.5416 114.142L67.1249 102.367V79.0333L88.5416 91.4V114.142ZM111.567 76.3333L90.0666 64.5083L68.5666 76.3333L90.0666 88.75L111.567 76.3333Z" fill="#1C78C0"/>
</svg>
