<svg width="48" height="48" viewBox="0 0 48 48" fill="none" xmlns="http://www.w3.org/2000/svg">
<path fill-rule="evenodd" clip-rule="evenodd" d="M6 5.5C6 2.46244 8.46243 0 11.5 0H40.5C41.3284 0 42 0.671573 42 1.5V42.5C42 43.3284 41.3284 44 40.5 44H28.5C27.6716 44 27 43.3284 27 42.5C27 41.6716 27.6716 41 28.5 41H39V33H12C10.3431 33 9 34.3431 9 36V37.5C9 38.9329 9.86129 40.168 11.1006 40.7094C11.8597 41.0411 12.2062 41.9254 11.8745 42.6845C11.5429 43.4436 10.6586 43.7902 9.89944 43.4585C7.6069 42.4568 6 40.1677 6 37.5V5.5ZM39 3V30H12C10.9071 30 9.88252 30.2922 9 30.8027V5.5C9 4.11929 10.1193 3 11.5 3H39Z" fill="#171923"/>
<path d="M14 36.5C14 36.2239 14.2239 36 14.5 36H24.5C24.7761 36 25 36.2239 25 36.5V46.5181C25 46.9268 24.5364 47.1628 24.2059 46.9225L19.7941 43.7139C19.6188 43.5864 19.3812 43.5864 19.2059 43.7139L14.7941 46.9225C14.4636 47.1628 14 46.9268 14 46.5181V36.5Z" fill="#171923"/>
</svg>
