<svg width="48" height="48" viewBox="0 0 48 48" fill="none" xmlns="http://www.w3.org/2000/svg">
<path fill-rule="evenodd" clip-rule="evenodd" d="M15 3.5C15 1.568 16.568 0 18.5 0H29.5C31.432 0 33 1.568 33 3.5V8H42.5C44.432 8 46 9.568 46 11.5V40.5C46 41.4283 45.6312 42.3185 44.9749 42.9749C44.3185 43.6312 43.4283 44 42.5 44H5.5C4.57174 44 3.6815 43.6312 3.02513 42.9749C2.36875 42.3185 2 41.4283 2 40.5V11.5C2 9.568 3.568 8 5.5 8H15V3.5ZM5 23.98V40.5C5 40.776 5.224 41 5.5 41H42.5C42.6326 41 42.7598 40.9473 42.8536 40.8536C42.9473 40.7598 43 40.6326 43 40.5V23.98C41.4655 25.2865 39.5153 26.0028 37.5 26H10.5C8.48468 26.0028 6.53446 25.2865 5 23.98V23.98ZM43 17.5C43 18.9587 42.4205 20.3576 41.3891 21.3891C40.3576 22.4205 38.9587 23 37.5 23H10.5C9.04131 23 7.64236 22.4205 6.61091 21.3891C5.57946 20.3576 5 18.9587 5 17.5V11.5C5 11.3674 5.05268 11.2402 5.14645 11.1464C5.24021 11.0527 5.36739 11 5.5 11H42.5C42.6326 11 42.7598 11.0527 42.8536 11.1464C42.9473 11.2402 43 11.3674 43 11.5V17.5ZM30 3.5V8H18V3.5C18 3.36739 18.0527 3.24021 18.1464 3.14645C18.2402 3.05268 18.3674 3 18.5 3H29.5C29.6326 3 29.7598 3.05268 29.8536 3.14645C29.9473 3.24021 30 3.36739 30 3.5Z" fill="#171923"/>
</svg>
